<mxfile host="drawio-plugin" modified="2021-04-21T08:41:02.230Z" agent="5.0 (Windows NT 6.2; Win64; x64) AppleWebKit/537.36 (KHTML, like Gecko) Chrome/84.0.4147.105 Safari/537.36" etag="YdCXc86XMoBXFKdAYqSL" version="13.7.9" type="embed"><diagram id="kgpKYQtTHZ0yAKxKKP6v" name="Page-1"><mxGraphModel dx="374" dy="383" grid="1" gridSize="10" guides="1" tooltips="1" connect="1" arrows="1" fold="1" page="1" pageScale="1" pageWidth="850" pageHeight="1100" math="0" shadow="0"><root><mxCell id="0"/><mxCell id="1" parent="0"/><mxCell id="3nuBFxr9cyL0pnOWT2aG-1" value="Người dùng" style="shape=umlLifeline;perimeter=lifelinePerimeter;container=1;collapsible=0;recursiveResize=0;rounded=0;shadow=0;strokeWidth=1;" parent="1" vertex="1"><mxGeometry x="20" y="80" width="230" height="880" as="geometry"/></mxCell><mxCell id="8wT1C0l9ehVBN8dMslaP-12" value="nhấn chọn vào sản phẩm" style="text;html=1;strokeColor=none;fillColor=none;align=center;verticalAlign=middle;whiteSpace=wrap;rounded=0;" parent="3nuBFxr9cyL0pnOWT2aG-1" vertex="1"><mxGeometry x="110" y="230" width="110" height="20" as="geometry"/></mxCell><mxCell id="8wT1C0l9ehVBN8dMslaP-30" value="Yêu cầu xem chi tiết sản phẩm" style="text;html=1;strokeColor=none;fillColor=none;align=center;verticalAlign=middle;whiteSpace=wrap;rounded=0;" parent="3nuBFxr9cyL0pnOWT2aG-1" vertex="1"><mxGeometry x="130" y="650" width="80" height="20" as="geometry"/></mxCell><mxCell id="3nuBFxr9cyL0pnOWT2aG-5" value="Hệ thống" style="shape=umlLifeline;perimeter=lifelinePerimeter;container=1;collapsible=0;recursiveResize=0;rounded=0;shadow=0;strokeWidth=1;" parent="1" vertex="1"><mxGeometry x="300" y="80" width="100" height="850" as="geometry"/></mxCell><mxCell id="3nuBFxr9cyL0pnOWT2aG-6" value="" style="points=[];perimeter=orthogonalPerimeter;rounded=0;shadow=0;strokeWidth=1;" parent="3nuBFxr9cyL0pnOWT2aG-5" vertex="1"><mxGeometry x="45" y="80" width="10" height="30" as="geometry"/></mxCell><mxCell id="8wT1C0l9ehVBN8dMslaP-20" value="" style="points=[];perimeter=orthogonalPerimeter;rounded=0;shadow=0;strokeWidth=1;" parent="3nuBFxr9cyL0pnOWT2aG-5" vertex="1"><mxGeometry x="45" y="400" width="10" height="40" as="geometry"/></mxCell><mxCell id="8wT1C0l9ehVBN8dMslaP-21" value="" style="endArrow=classic;html=1;" parent="3nuBFxr9cyL0pnOWT2aG-5" target="8wT1C0l9ehVBN8dMslaP-1" edge="1"><mxGeometry width="50" height="50" relative="1" as="geometry"><mxPoint x="50" y="460" as="sourcePoint"/><mxPoint x="100" y="410" as="targetPoint"/></mxGeometry></mxCell><mxCell id="8wT1C0l9ehVBN8dMslaP-31" value="" style="points=[];perimeter=orthogonalPerimeter;rounded=0;shadow=0;strokeWidth=1;" parent="3nuBFxr9cyL0pnOWT2aG-5" vertex="1"><mxGeometry x="45" y="680" width="10" height="40" as="geometry"/></mxCell><mxCell id="3nuBFxr9cyL0pnOWT2aG-8" value="Yêu cầu xem sản phẩm" style="verticalAlign=bottom;endArrow=block;entryX=0;entryY=0;shadow=0;strokeWidth=1;" parent="1" source="3nuBFxr9cyL0pnOWT2aG-1" target="3nuBFxr9cyL0pnOWT2aG-6" edge="1"><mxGeometry relative="1" as="geometry"><mxPoint x="275" y="160" as="sourcePoint"/></mxGeometry></mxCell><mxCell id="3nuBFxr9cyL0pnOWT2aG-9" value="Mở tab sản phẩm" style="verticalAlign=bottom;endArrow=block;shadow=0;strokeWidth=1;" parent="1" source="3nuBFxr9cyL0pnOWT2aG-5" target="3nuBFxr9cyL0pnOWT2aG-1" edge="1"><mxGeometry relative="1" as="geometry"><mxPoint x="240" y="200" as="sourcePoint"/><Array as="points"><mxPoint x="250" y="260"/></Array></mxGeometry></mxCell><mxCell id="8wT1C0l9ehVBN8dMslaP-1" value="Sản phẩm" style="shape=umlLifeline;perimeter=lifelinePerimeter;container=1;collapsible=0;recursiveResize=0;rounded=0;shadow=0;strokeWidth=1;" parent="1" vertex="1"><mxGeometry x="490" y="80" width="130" height="640" as="geometry"/></mxCell><mxCell id="8wT1C0l9ehVBN8dMslaP-2" value="" style="points=[];perimeter=orthogonalPerimeter;rounded=0;shadow=0;strokeWidth=1;" parent="8wT1C0l9ehVBN8dMslaP-1" vertex="1"><mxGeometry x="60" y="110" width="10" height="40" as="geometry"/></mxCell><mxCell id="8wT1C0l9ehVBN8dMslaP-24" value="Thay đổi tt sp" style="text;html=1;strokeColor=none;fillColor=none;align=center;verticalAlign=middle;whiteSpace=wrap;rounded=0;" parent="8wT1C0l9ehVBN8dMslaP-1" vertex="1"><mxGeometry x="90" y="440" width="40" height="20" as="geometry"/></mxCell><mxCell id="8wT1C0l9ehVBN8dMslaP-3" value="Shipment" style="shape=umlLifeline;perimeter=lifelinePerimeter;container=1;collapsible=0;recursiveResize=0;rounded=0;shadow=0;strokeWidth=1;" parent="1" vertex="1"><mxGeometry x="670" y="80" width="100" height="800" as="geometry"/></mxCell><mxCell id="8wT1C0l9ehVBN8dMslaP-34" value="" style="points=[];perimeter=orthogonalPerimeter;rounded=0;shadow=0;strokeWidth=1;" parent="8wT1C0l9ehVBN8dMslaP-3" vertex="1"><mxGeometry x="45" y="720" width="10" height="50" as="geometry"/></mxCell><mxCell id="8wT1C0l9ehVBN8dMslaP-5" value="" style="endArrow=classic;html=1;exitX=0.5;exitY=1;exitDx=0;exitDy=0;exitPerimeter=0;" parent="1" source="3nuBFxr9cyL0pnOWT2aG-6" target="8wT1C0l9ehVBN8dMslaP-1" edge="1"><mxGeometry width="50" height="50" relative="1" as="geometry"><mxPoint x="350" y="210" as="sourcePoint"/><mxPoint x="400" y="160" as="targetPoint"/></mxGeometry></mxCell><mxCell id="8wT1C0l9ehVBN8dMslaP-7" value="Yêu cầu tạo danh sách sản phẩm" style="text;html=1;strokeColor=none;fillColor=none;align=center;verticalAlign=middle;whiteSpace=wrap;rounded=0;" parent="1" vertex="1"><mxGeometry x="390" y="160" width="110" height="20" as="geometry"/></mxCell><mxCell id="8wT1C0l9ehVBN8dMslaP-8" value="" style="endArrow=classic;html=1;exitX=0.45;exitY=1;exitDx=0;exitDy=0;exitPerimeter=0;" parent="1" source="8wT1C0l9ehVBN8dMslaP-2" target="3nuBFxr9cyL0pnOWT2aG-5" edge="1"><mxGeometry width="50" height="50" relative="1" as="geometry"><mxPoint x="490" y="270" as="sourcePoint"/><mxPoint x="540" y="220" as="targetPoint"/><Array as="points"><mxPoint x="450" y="230"/></Array></mxGeometry></mxCell><mxCell id="8wT1C0l9ehVBN8dMslaP-9" value="Gửi lại sanh dách sản phẩm" style="text;html=1;strokeColor=none;fillColor=none;align=center;verticalAlign=middle;whiteSpace=wrap;rounded=0;" parent="1" vertex="1"><mxGeometry x="395" y="200" width="100" height="20" as="geometry"/></mxCell><mxCell id="8wT1C0l9ehVBN8dMslaP-11" value="" style="endArrow=classic;html=1;" parent="1" source="3nuBFxr9cyL0pnOWT2aG-1" target="3nuBFxr9cyL0pnOWT2aG-5" edge="1"><mxGeometry width="50" height="50" relative="1" as="geometry"><mxPoint x="170" y="370" as="sourcePoint"/><mxPoint x="220" y="320" as="targetPoint"/><Array as="points"><mxPoint x="270" y="340"/></Array></mxGeometry></mxCell><mxCell id="8wT1C0l9ehVBN8dMslaP-15" value="" style="endArrow=classic;html=1;" parent="1" source="3nuBFxr9cyL0pnOWT2aG-5" target="3nuBFxr9cyL0pnOWT2aG-1" edge="1"><mxGeometry width="50" height="50" relative="1" as="geometry"><mxPoint x="300" y="420" as="sourcePoint"/><mxPoint x="350" y="370" as="targetPoint"/><Array as="points"><mxPoint x="260" y="400"/></Array></mxGeometry></mxCell><mxCell id="8wT1C0l9ehVBN8dMslaP-16" value="Bôi đen và cho phép sửa sản phẩm" style="text;html=1;strokeColor=none;fillColor=none;align=center;verticalAlign=middle;whiteSpace=wrap;rounded=0;" parent="1" vertex="1"><mxGeometry x="210" y="370" width="120" height="20" as="geometry"/></mxCell><mxCell id="8wT1C0l9ehVBN8dMslaP-19" value="Chỉnh sửa thông tin sản phẩm" style="text;html=1;strokeColor=none;fillColor=none;align=center;verticalAlign=middle;whiteSpace=wrap;rounded=0;" parent="1" vertex="1"><mxGeometry x="200" y="440" width="110" height="20" as="geometry"/></mxCell><mxCell id="8wT1C0l9ehVBN8dMslaP-22" value="Yêu cầu thay đổi thông tin sản phẩm" style="text;html=1;strokeColor=none;fillColor=none;align=center;verticalAlign=middle;whiteSpace=wrap;rounded=0;" parent="1" vertex="1"><mxGeometry x="370" y="510" width="130" height="20" as="geometry"/></mxCell><mxCell id="8wT1C0l9ehVBN8dMslaP-23" value="" style="endArrow=classic;html=1;entryX=0.528;entryY=0.814;entryDx=0;entryDy=0;entryPerimeter=0;" parent="1" source="8wT1C0l9ehVBN8dMslaP-1" target="8wT1C0l9ehVBN8dMslaP-1" edge="1"><mxGeometry width="50" height="50" relative="1" as="geometry"><mxPoint x="540" y="590" as="sourcePoint"/><mxPoint x="600" y="650" as="targetPoint"/><Array as="points"><mxPoint x="600" y="553"/><mxPoint x="620" y="600"/></Array></mxGeometry></mxCell><mxCell id="8wT1C0l9ehVBN8dMslaP-25" value="" style="endArrow=classic;html=1;" parent="1" source="8wT1C0l9ehVBN8dMslaP-1" target="3nuBFxr9cyL0pnOWT2aG-5" edge="1"><mxGeometry width="50" height="50" relative="1" as="geometry"><mxPoint x="510" y="650" as="sourcePoint"/><mxPoint x="560" y="600" as="targetPoint"/><Array as="points"><mxPoint x="460" y="620"/></Array></mxGeometry></mxCell><mxCell id="8wT1C0l9ehVBN8dMslaP-26" value="Trả lại tt sản phẩm mới" style="text;html=1;strokeColor=none;fillColor=none;align=center;verticalAlign=middle;whiteSpace=wrap;rounded=0;" parent="1" vertex="1"><mxGeometry x="400" y="590" width="80" height="20" as="geometry"/></mxCell><mxCell id="8wT1C0l9ehVBN8dMslaP-27" value="" style="endArrow=classic;html=1;" parent="1" source="3nuBFxr9cyL0pnOWT2aG-5" target="3nuBFxr9cyL0pnOWT2aG-1" edge="1"><mxGeometry width="50" height="50" relative="1" as="geometry"><mxPoint x="300" y="690" as="sourcePoint"/><mxPoint x="350" y="640" as="targetPoint"/><Array as="points"><mxPoint x="260" y="650"/></Array></mxGeometry></mxCell><mxCell id="8wT1C0l9ehVBN8dMslaP-28" value="trả lại tt sp đã sửa" style="text;html=1;strokeColor=none;fillColor=none;align=center;verticalAlign=middle;whiteSpace=wrap;rounded=0;" parent="1" vertex="1"><mxGeometry x="210" y="620" width="60" height="20" as="geometry"/></mxCell><mxCell id="8wT1C0l9ehVBN8dMslaP-32" value="" style="endArrow=classic;html=1;" parent="1" target="8wT1C0l9ehVBN8dMslaP-3" edge="1"><mxGeometry width="50" height="50" relative="1" as="geometry"><mxPoint x="351" y="800" as="sourcePoint"/><mxPoint x="400" y="760" as="targetPoint"/><Array as="points"><mxPoint x="540" y="800"/></Array></mxGeometry></mxCell><mxCell id="8wT1C0l9ehVBN8dMslaP-33" value="Yêu cầu tt chi tiết sản phẩm với mã đã có" style="text;html=1;strokeColor=none;fillColor=none;align=center;verticalAlign=middle;whiteSpace=wrap;rounded=0;" parent="1" vertex="1"><mxGeometry x="450" y="780" width="210" height="20" as="geometry"/></mxCell><mxCell id="8wT1C0l9ehVBN8dMslaP-36" value="Danh sách các lô hàng của sp mà ht yêu cầu" style="text;html=1;strokeColor=none;fillColor=none;align=center;verticalAlign=middle;whiteSpace=wrap;rounded=0;" parent="1" vertex="1"><mxGeometry x="460" y="820" width="160" height="20" as="geometry"/></mxCell><mxCell id="8wT1C0l9ehVBN8dMslaP-35" value="" style="endArrow=classic;html=1;exitX=0.167;exitY=1.093;exitDx=0;exitDy=0;exitPerimeter=0;entryX=0.5;entryY=0.906;entryDx=0;entryDy=0;entryPerimeter=0;" parent="1" source="8wT1C0l9ehVBN8dMslaP-34" target="3nuBFxr9cyL0pnOWT2aG-5" edge="1"><mxGeometry width="50" height="50" relative="1" as="geometry"><mxPoint x="670" y="870" as="sourcePoint"/><mxPoint x="340" y="870" as="targetPoint"/><Array as="points"><mxPoint x="550" y="850"/></Array></mxGeometry></mxCell><mxCell id="8wT1C0l9ehVBN8dMslaP-17" value="" style="endArrow=classic;html=1;entryX=0.487;entryY=0.462;entryDx=0;entryDy=0;entryPerimeter=0;" parent="1" source="3nuBFxr9cyL0pnOWT2aG-1" target="3nuBFxr9cyL0pnOWT2aG-5" edge="1"><mxGeometry width="50" height="50" relative="1" as="geometry"><mxPoint x="160" y="490" as="sourcePoint"/><mxPoint x="310" y="490" as="targetPoint"/><Array as="points"><mxPoint x="250" y="470"/></Array></mxGeometry></mxCell><mxCell id="8wT1C0l9ehVBN8dMslaP-29" value="" style="endArrow=classic;html=1;exitX=0.504;exitY=0.773;exitDx=0;exitDy=0;exitPerimeter=0;entryX=0.367;entryY=-0.033;entryDx=0;entryDy=0;entryPerimeter=0;" parent="1" source="3nuBFxr9cyL0pnOWT2aG-1" target="8wT1C0l9ehVBN8dMslaP-31" edge="1"><mxGeometry width="50" height="50" relative="1" as="geometry"><mxPoint x="180" y="760" as="sourcePoint"/><mxPoint x="347" y="755" as="targetPoint"/></mxGeometry></mxCell><mxCell id="8wT1C0l9ehVBN8dMslaP-38" value="" style="endArrow=classic;html=1;entryX=0.5;entryY=0.909;entryDx=0;entryDy=0;entryPerimeter=0;" parent="1" source="3nuBFxr9cyL0pnOWT2aG-5" target="3nuBFxr9cyL0pnOWT2aG-1" edge="1"><mxGeometry width="50" height="50" relative="1" as="geometry"><mxPoint x="300" y="920" as="sourcePoint"/><mxPoint x="200" y="920" as="targetPoint"/><Array as="points"><mxPoint x="250" y="880"/></Array></mxGeometry></mxCell><mxCell id="8wT1C0l9ehVBN8dMslaP-40" value="Đưa ra các lô hàng mà người dùng yc" style="text;html=1;strokeColor=none;fillColor=none;align=center;verticalAlign=middle;whiteSpace=wrap;rounded=0;" parent="1" vertex="1"><mxGeometry x="180" y="850" width="120" height="20" as="geometry"/></mxCell></root></mxGraphModel></diagram></mxfile>